<svg xmlns="http://www.w3.org/2000/svg" xmlns:xlink="http://www.w3.org/1999/xlink" width="1366" zoomAndPan="magnify" viewBox="0 0 1024.5 576" height="768" preserveAspectRatio="xMidYMid meet" version="1.0"><defs><filter x="0%" y="0%" width="100%" height="100%" id="ffb50c2ca2"><feColorMatrix values="0 0 0 0 1 0 0 0 0 1 0 0 0 0 1 0 0 0 1 0" color-interpolation-filters="sRGB"/></filter><clipPath id="18a36d3d33"><path d="M 0 532 L 1024 532 L 1024 575.859375 L 0 575.859375 Z M 0 532 " clip-rule="nonzero"/></clipPath><mask id="723ad62a8a"><g filter="url(#ffb50c2ca2)"><rect x="-102.45" width="1229.4" fill="#000000" y="-57.6" height="691.2" fill-opacity="0.78"/></g></mask><clipPath id="5dcfc9059f"><path d="M 0 0.449219 L 1024 0.449219 L 1024 43.859375 L 0 43.859375 Z M 0 0.449219 " clip-rule="nonzero"/></clipPath><clipPath id="2ca24fe218"><path d="M 1028.011719 0.449219 C 1035.941406 0.449219 1042.371094 10.167969 1042.371094 22.15625 C 1042.371094 34.140625 1035.941406 43.859375 1028.011719 43.859375 L -4.011719 43.859375 C -11.941406 43.859375 -18.371094 34.140625 -18.371094 22.15625 C -18.371094 10.167969 -11.941406 0.449219 -4.011719 0.449219 Z M 1028.011719 0.449219 " clip-rule="nonzero"/></clipPath><clipPath id="af36aed6c5"><rect x="0" width="1024" y="0" height="44"/></clipPath><clipPath id="9186b787de"><path d="M 958 532 L 1024 532 L 1024 575.859375 L 958 575.859375 Z M 958 532 " clip-rule="nonzero"/></clipPath><mask id="0a33bb39fd"><g filter="url(#ffb50c2ca2)"><rect x="-102.45" width="1229.4" fill="#000000" y="-57.6" height="691.2" fill-opacity="0.94"/></g></mask><clipPath id="494ad5f0b5"><path d="M 42 0.449219 L 66 0.449219 L 66 24 L 42 24 Z M 42 0.449219 " clip-rule="nonzero"/></clipPath><clipPath id="1ce73e4aa5"><path d="M 0.140625 7 L 66 7 L 66 43.859375 L 0.140625 43.859375 Z M 0.140625 7 " clip-rule="nonzero"/></clipPath><clipPath id="51cdc4aae0"><rect x="0" width="66" y="0" height="44"/></clipPath><clipPath id="466d196a70"><path d="M 0 532 L 66 532 L 66 575.859375 L 0 575.859375 Z M 0 532 " clip-rule="nonzero"/></clipPath><mask id="a3fe42906d"><g filter="url(#ffb50c2ca2)"><rect x="-102.45" width="1229.4" fill="#000000" y="-57.6" height="691.2" fill-opacity="0.94"/></g></mask><clipPath id="9b4ad615b6"><path d="M 0 0.449219 L 24 0.449219 L 24 24 L 0 24 Z M 0 0.449219 " clip-rule="nonzero"/></clipPath><clipPath id="5bc574ba17"><path d="M 0 7 L 65.589844 7 L 65.589844 43.859375 L 0 43.859375 Z M 0 7 " clip-rule="nonzero"/></clipPath><clipPath id="77cf9a7e39"><rect x="0" width="66" y="0" height="44"/></clipPath></defs><g clip-path="url(#18a36d3d33)"><g mask="url(#723ad62a8a)"><g transform="matrix(1, 0, 0, 1, 0, 532)"><g clip-path="url(#af36aed6c5)"><g clip-path="url(#5dcfc9059f)"><g clip-path="url(#2ca24fe218)"><path fill="#ffd26b" d="M -18.371094 0.449219 L 1042.289062 0.449219 L 1042.289062 43.859375 L -18.371094 43.859375 Z M -18.371094 0.449219 " fill-opacity="1" fill-rule="nonzero"/></g></g></g></g></g></g><g clip-path="url(#9186b787de)"><g mask="url(#0a33bb39fd)"><g transform="matrix(1, 0, 0, 1, 958, 532)"><g clip-path="url(#51cdc4aae0)"><g clip-path="url(#494ad5f0b5)"><path fill="#ffffff" d="M 65.179688 11.984375 C 65.179688 12.742188 65.105469 13.492188 64.957031 14.234375 C 64.808594 14.976562 64.589844 15.699219 64.300781 16.398438 C 64.011719 17.097656 63.65625 17.761719 63.234375 18.394531 C 62.8125 19.023438 62.335938 19.605469 61.800781 20.140625 C 61.265625 20.675781 60.679688 21.15625 60.050781 21.574219 C 59.421875 21.996094 58.757812 22.351562 58.058594 22.640625 C 57.355469 22.933594 56.636719 23.152344 55.894531 23.296875 C 55.148438 23.445312 54.398438 23.519531 53.644531 23.519531 C 52.886719 23.519531 52.136719 23.445312 51.390625 23.296875 C 50.648438 23.152344 49.929688 22.933594 49.230469 22.640625 C 48.527344 22.351562 47.863281 21.996094 47.234375 21.574219 C 46.605469 21.15625 46.023438 20.675781 45.484375 20.140625 C 44.949219 19.605469 44.472656 19.023438 44.050781 18.394531 C 43.632812 17.761719 43.277344 17.097656 42.984375 16.398438 C 42.695312 15.699219 42.476562 14.976562 42.328125 14.234375 C 42.179688 13.492188 42.109375 12.742188 42.109375 11.984375 C 42.109375 11.226562 42.179688 10.476562 42.328125 9.734375 C 42.476562 8.992188 42.695312 8.269531 42.984375 7.570312 C 43.277344 6.871094 43.632812 6.207031 44.050781 5.578125 C 44.472656 4.945312 44.949219 4.363281 45.484375 3.828125 C 46.023438 3.292969 46.605469 2.816406 47.234375 2.394531 C 47.863281 1.972656 48.527344 1.617188 49.230469 1.328125 C 49.929688 1.039062 50.648438 0.820312 51.390625 0.671875 C 52.136719 0.523438 52.886719 0.449219 53.644531 0.449219 C 54.398438 0.449219 55.148438 0.523438 55.894531 0.671875 C 56.636719 0.820312 57.355469 1.039062 58.058594 1.328125 C 58.757812 1.617188 59.421875 1.972656 60.050781 2.394531 C 60.679688 2.816406 61.265625 3.292969 61.800781 3.828125 C 62.335938 4.363281 62.8125 4.945312 63.234375 5.578125 C 63.65625 6.207031 64.011719 6.871094 64.300781 7.570312 C 64.589844 8.269531 64.808594 8.992188 64.957031 9.734375 C 65.105469 10.476562 65.179688 11.226562 65.179688 11.984375 Z M 65.179688 11.984375 " fill-opacity="1" fill-rule="nonzero"/></g><path fill="#7f95e4" d="M 60.988281 11.984375 C 60.988281 12.46875 60.941406 12.945312 60.847656 13.417969 C 60.75 13.890625 60.613281 14.351562 60.429688 14.796875 C 60.242188 15.242188 60.015625 15.664062 59.75 16.066406 C 59.480469 16.464844 59.175781 16.835938 58.835938 17.179688 C 58.496094 17.519531 58.125 17.824219 57.722656 18.089844 C 57.320312 18.359375 56.898438 18.585938 56.453125 18.769531 C 56.007812 18.953125 55.546875 19.09375 55.074219 19.1875 C 54.601562 19.28125 54.125 19.328125 53.644531 19.328125 C 53.160156 19.328125 52.683594 19.28125 52.210938 19.1875 C 51.738281 19.09375 51.277344 18.953125 50.832031 18.769531 C 50.386719 18.585938 49.964844 18.359375 49.5625 18.089844 C 49.160156 17.824219 48.789062 17.519531 48.449219 17.179688 C 48.109375 16.835938 47.804688 16.464844 47.535156 16.066406 C 47.269531 15.664062 47.042969 15.242188 46.859375 14.796875 C 46.671875 14.351562 46.535156 13.890625 46.441406 13.417969 C 46.34375 12.945312 46.296875 12.46875 46.296875 11.984375 C 46.296875 11.503906 46.34375 11.023438 46.441406 10.550781 C 46.535156 10.078125 46.671875 9.621094 46.859375 9.175781 C 47.042969 8.730469 47.269531 8.304688 47.535156 7.90625 C 47.804688 7.503906 48.109375 7.132812 48.449219 6.792969 C 48.789062 6.449219 49.160156 6.144531 49.5625 5.878906 C 49.964844 5.609375 50.386719 5.382812 50.832031 5.199219 C 51.277344 5.015625 51.738281 4.875 52.210938 4.78125 C 52.683594 4.6875 53.160156 4.640625 53.644531 4.640625 C 54.125 4.640625 54.601562 4.6875 55.074219 4.78125 C 55.546875 4.875 56.007812 5.015625 56.453125 5.199219 C 56.898438 5.382812 57.320312 5.609375 57.722656 5.878906 C 58.125 6.144531 58.496094 6.449219 58.835938 6.792969 C 59.175781 7.132812 59.480469 7.503906 59.75 7.90625 C 60.015625 8.304688 60.242188 8.730469 60.429688 9.175781 C 60.613281 9.621094 60.75 10.078125 60.847656 10.550781 C 60.941406 11.023438 60.988281 11.503906 60.988281 11.984375 Z M 60.988281 11.984375 " fill-opacity="1" fill-rule="nonzero"/><path fill="#bf4da5" d="M 19.492188 22.109375 L 19.492188 12.441406 C 19.492188 12.441406 29.160156 12.441406 29.160156 22.109375 Z M 19.492188 22.109375 " fill-opacity="1" fill-rule="nonzero"/><g clip-path="url(#1ce73e4aa5)"><path fill="#bf4da5" d="M 77.417969 34.515625 C 75.34375 34.515625 73.476562 35.429688 72.230469 36.921875 C 70.488281 26.839844 63.101562 21.570312 58.082031 19.121094 C 55.59375 17.917969 52.855469 17.296875 50.03125 17.296875 L 38.789062 17.296875 C 38.789062 7.628906 29.121094 7.628906 29.121094 7.628906 L 29.121094 17.753906 C 18.746094 19.867188 10.78125 28.625 9.910156 39.371094 C 3.808594 39.371094 0.199219 36.589844 0.199219 36.589844 L 0.199219 46.257812 C 0.199219 46.257812 0.199219 51.070312 9.867188 55.925781 C 19.535156 60.738281 19.535156 60.738281 19.535156 75.21875 C 19.535156 75.21875 24.347656 75.21875 29.203125 65.550781 L 53.351562 65.550781 L 53.351562 75.21875 C 53.351562 75.21875 71.734375 70.613281 72.605469 43.476562 L 74.679688 43.476562 L 74.679688 41.445312 C 74.679688 39.910156 75.925781 38.664062 77.460938 38.664062 C 78.996094 38.664062 80.238281 39.910156 80.238281 41.445312 C 80.238281 42.980469 78.996094 44.226562 77.460938 44.226562 L 77.460938 48.332031 C 81.234375 48.332031 84.347656 45.261719 84.347656 41.445312 C 84.347656 37.628906 81.195312 34.515625 77.417969 34.515625 Z M 77.417969 34.515625 " fill-opacity="1" fill-rule="nonzero"/></g><path fill="#ffffff" d="M 21.527344 32.730469 C 21.527344 32.960938 21.484375 33.183594 21.394531 33.398438 C 21.304688 33.613281 21.179688 33.800781 21.015625 33.964844 C 20.851562 34.128906 20.664062 34.253906 20.453125 34.339844 C 20.238281 34.429688 20.015625 34.472656 19.785156 34.472656 C 19.554688 34.472656 19.332031 34.429688 19.117188 34.339844 C 18.902344 34.253906 18.714844 34.128906 18.550781 33.964844 C 18.390625 33.800781 18.261719 33.613281 18.175781 33.398438 C 18.085938 33.183594 18.042969 32.960938 18.042969 32.730469 C 18.042969 32.5 18.085938 32.277344 18.175781 32.066406 C 18.261719 31.851562 18.390625 31.664062 18.550781 31.5 C 18.714844 31.335938 18.902344 31.210938 19.117188 31.121094 C 19.332031 31.03125 19.554688 30.988281 19.785156 30.988281 C 20.015625 30.988281 20.238281 31.03125 20.453125 31.121094 C 20.664062 31.210938 20.851562 31.335938 21.015625 31.5 C 21.179688 31.664062 21.304688 31.851562 21.394531 32.066406 C 21.484375 32.277344 21.527344 32.5 21.527344 32.730469 Z M 21.527344 32.730469 " fill-opacity="1" fill-rule="nonzero"/></g></g></g></g><g clip-path="url(#466d196a70)"><g mask="url(#a3fe42906d)"><g transform="matrix(1, 0, 0, 1, 0, 532)"><g clip-path="url(#77cf9a7e39)"><g clip-path="url(#9b4ad615b6)"><path fill="#ffffff" d="M 0.820312 11.984375 C 0.820312 12.742188 0.894531 13.492188 1.042969 14.234375 C 1.1875 14.976562 1.40625 15.699219 1.699219 16.398438 C 1.988281 17.097656 2.34375 17.761719 2.761719 18.394531 C 3.183594 19.023438 3.664062 19.605469 4.199219 20.140625 C 4.734375 20.675781 5.316406 21.15625 5.945312 21.574219 C 6.574219 21.996094 7.242188 22.351562 7.941406 22.640625 C 8.640625 22.933594 9.359375 23.152344 10.105469 23.296875 C 10.847656 23.445312 11.597656 23.519531 12.355469 23.519531 C 13.113281 23.519531 13.863281 23.445312 14.605469 23.296875 C 15.347656 23.152344 16.070312 22.933594 16.769531 22.640625 C 17.46875 22.351562 18.132812 21.996094 18.761719 21.574219 C 19.394531 21.15625 19.976562 20.675781 20.511719 20.140625 C 21.046875 19.605469 21.523438 19.023438 21.945312 18.394531 C 22.367188 17.761719 22.722656 17.097656 23.011719 16.398438 C 23.300781 15.699219 23.519531 14.976562 23.667969 14.234375 C 23.816406 13.492188 23.890625 12.742188 23.890625 11.984375 C 23.890625 11.226562 23.816406 10.476562 23.667969 9.734375 C 23.519531 8.992188 23.300781 8.269531 23.011719 7.570312 C 22.722656 6.871094 22.367188 6.207031 21.945312 5.578125 C 21.523438 4.945312 21.046875 4.363281 20.511719 3.828125 C 19.976562 3.292969 19.394531 2.816406 18.761719 2.394531 C 18.132812 1.972656 17.46875 1.617188 16.769531 1.328125 C 16.070312 1.039062 15.347656 0.820312 14.605469 0.671875 C 13.863281 0.523438 13.113281 0.449219 12.355469 0.449219 C 11.597656 0.449219 10.847656 0.523438 10.105469 0.671875 C 9.359375 0.820312 8.640625 1.039062 7.941406 1.328125 C 7.242188 1.617188 6.574219 1.972656 5.945312 2.394531 C 5.316406 2.816406 4.734375 3.292969 4.199219 3.828125 C 3.664062 4.363281 3.183594 4.945312 2.761719 5.578125 C 2.34375 6.207031 1.988281 6.871094 1.699219 7.570312 C 1.40625 8.269531 1.1875 8.992188 1.042969 9.734375 C 0.894531 10.476562 0.820312 11.226562 0.820312 11.984375 Z M 0.820312 11.984375 " fill-opacity="1" fill-rule="nonzero"/></g><path fill="#7f95e4" d="M 5.011719 11.984375 C 5.011719 12.46875 5.058594 12.945312 5.152344 13.417969 C 5.246094 13.890625 5.386719 14.351562 5.570312 14.796875 C 5.753906 15.242188 5.980469 15.664062 6.246094 16.066406 C 6.515625 16.464844 6.820312 16.835938 7.160156 17.179688 C 7.503906 17.519531 7.875 17.824219 8.273438 18.089844 C 8.675781 18.359375 9.097656 18.585938 9.542969 18.769531 C 9.988281 18.953125 10.449219 19.09375 10.921875 19.1875 C 11.394531 19.28125 11.871094 19.328125 12.355469 19.328125 C 12.835938 19.328125 13.3125 19.28125 13.789062 19.1875 C 14.261719 19.09375 14.71875 18.953125 15.164062 18.769531 C 15.609375 18.585938 16.035156 18.359375 16.433594 18.089844 C 16.835938 17.824219 17.207031 17.519531 17.546875 17.179688 C 17.890625 16.835938 18.191406 16.464844 18.460938 16.066406 C 18.730469 15.664062 18.957031 15.242188 19.140625 14.796875 C 19.324219 14.351562 19.464844 13.890625 19.558594 13.417969 C 19.652344 12.945312 19.699219 12.46875 19.699219 11.984375 C 19.699219 11.503906 19.652344 11.023438 19.558594 10.550781 C 19.464844 10.078125 19.324219 9.621094 19.140625 9.175781 C 18.957031 8.730469 18.730469 8.304688 18.460938 7.90625 C 18.191406 7.503906 17.890625 7.132812 17.546875 6.792969 C 17.207031 6.449219 16.835938 6.144531 16.433594 5.878906 C 16.035156 5.609375 15.609375 5.382812 15.164062 5.199219 C 14.71875 5.015625 14.261719 4.875 13.789062 4.78125 C 13.3125 4.6875 12.835938 4.640625 12.355469 4.640625 C 11.871094 4.640625 11.394531 4.6875 10.921875 4.78125 C 10.449219 4.875 9.988281 5.015625 9.542969 5.199219 C 9.097656 5.382812 8.675781 5.609375 8.273438 5.878906 C 7.875 6.144531 7.503906 6.449219 7.160156 6.792969 C 6.820312 7.132812 6.515625 7.503906 6.246094 7.90625 C 5.980469 8.304688 5.753906 8.730469 5.570312 9.175781 C 5.386719 9.621094 5.246094 10.078125 5.152344 10.550781 C 5.058594 11.023438 5.011719 11.503906 5.011719 11.984375 Z M 5.011719 11.984375 " fill-opacity="1" fill-rule="nonzero"/><path fill="#bf4da5" d="M 46.503906 22.109375 L 46.503906 12.441406 C 46.503906 12.441406 36.835938 12.441406 36.835938 22.109375 Z M 46.503906 22.109375 " fill-opacity="1" fill-rule="nonzero"/><g clip-path="url(#5bc574ba17)"><path fill="#bf4da5" d="M -11.421875 34.515625 C -9.347656 34.515625 -7.480469 35.429688 -6.234375 36.921875 C -4.492188 26.839844 2.894531 21.570312 7.914062 19.121094 C 10.40625 17.917969 13.144531 17.296875 15.964844 17.296875 L 27.210938 17.296875 C 27.210938 7.628906 36.878906 7.628906 36.878906 7.628906 L 36.878906 17.753906 C 47.25 19.867188 55.21875 28.625 56.089844 39.371094 C 62.1875 39.371094 65.796875 36.589844 65.796875 36.589844 L 65.796875 46.257812 C 65.796875 46.257812 65.796875 51.070312 56.128906 55.925781 C 46.460938 60.738281 46.460938 60.738281 46.460938 75.21875 C 46.460938 75.21875 41.648438 75.21875 36.792969 65.550781 L 12.644531 65.550781 L 12.644531 75.21875 C 12.644531 75.21875 -5.738281 70.613281 -6.609375 43.476562 L -8.683594 43.476562 L -8.683594 41.445312 C -8.683594 39.910156 -9.925781 38.664062 -11.460938 38.664062 C -12.996094 38.664062 -14.242188 39.910156 -14.242188 41.445312 C -14.242188 42.980469 -12.996094 44.226562 -11.460938 44.226562 L -11.460938 48.332031 C -15.238281 48.332031 -18.351562 45.261719 -18.351562 41.445312 C -18.351562 37.628906 -15.195312 34.515625 -11.421875 34.515625 Z M -11.421875 34.515625 " fill-opacity="1" fill-rule="nonzero"/></g><path fill="#ffffff" d="M 44.46875 32.730469 C 44.46875 32.960938 44.515625 33.183594 44.601562 33.398438 C 44.691406 33.613281 44.816406 33.800781 44.980469 33.964844 C 45.144531 34.128906 45.332031 34.253906 45.546875 34.339844 C 45.757812 34.429688 45.980469 34.472656 46.214844 34.472656 C 46.445312 34.472656 46.667969 34.429688 46.878906 34.339844 C 47.09375 34.253906 47.28125 34.128906 47.445312 33.964844 C 47.609375 33.800781 47.734375 33.613281 47.824219 33.398438 C 47.910156 33.183594 47.957031 32.960938 47.957031 32.730469 C 47.957031 32.5 47.910156 32.277344 47.824219 32.066406 C 47.734375 31.851562 47.609375 31.664062 47.445312 31.5 C 47.28125 31.335938 47.09375 31.210938 46.878906 31.121094 C 46.667969 31.03125 46.445312 30.988281 46.214844 30.988281 C 45.980469 30.988281 45.757812 31.03125 45.546875 31.121094 C 45.332031 31.210938 45.144531 31.335938 44.980469 31.5 C 44.816406 31.664062 44.691406 31.851562 44.601562 32.066406 C 44.515625 32.277344 44.46875 32.5 44.46875 32.730469 Z M 44.46875 32.730469 " fill-opacity="1" fill-rule="nonzero"/></g></g></g></g></svg>