<svg xmlns="http://www.w3.org/2000/svg" xmlns:xlink="http://www.w3.org/1999/xlink" width="500" zoomAndPan="magnify" viewBox="0 0 375 374.999991" height="500" preserveAspectRatio="xMidYMid meet" version="1.0"><defs><clipPath id="12589dfede"><path d="M 186 21.136719 L 290 21.136719 L 290 124 L 186 124 Z M 186 21.136719 " clip-rule="nonzero"/></clipPath><clipPath id="492d75bdab"><path d="M 0 53 L 375 53 L 375 354.136719 L 0 354.136719 Z M 0 53 " clip-rule="nonzero"/></clipPath></defs><g clip-path="url(#12589dfede)"><path fill="#ffde59" d="M 289.570312 72.496094 C 289.570312 74.175781 289.488281 75.855469 289.320312 77.527344 C 289.15625 79.203125 288.910156 80.863281 288.582031 82.515625 C 288.253906 84.164062 287.847656 85.792969 287.359375 87.402344 C 286.871094 89.011719 286.304688 90.59375 285.660156 92.148438 C 285.015625 93.703125 284.296875 95.222656 283.503906 96.703125 C 282.710938 98.1875 281.847656 99.628906 280.914062 101.027344 C 279.980469 102.425781 278.980469 103.773438 277.910156 105.074219 C 276.84375 106.375 275.714844 107.621094 274.527344 108.808594 C 273.335938 110 272.09375 111.128906 270.792969 112.195312 C 269.492188 113.261719 268.144531 114.261719 266.746094 115.195312 C 265.347656 116.132812 263.90625 116.996094 262.421875 117.789062 C 260.9375 118.582031 259.417969 119.300781 257.867188 119.941406 C 256.3125 120.585938 254.730469 121.152344 253.121094 121.640625 C 251.511719 122.128906 249.878906 122.539062 248.230469 122.867188 C 246.582031 123.195312 244.917969 123.441406 243.246094 123.605469 C 241.570312 123.769531 239.894531 123.851562 238.210938 123.851562 C 236.53125 123.851562 234.851562 123.769531 233.175781 123.605469 C 231.503906 123.441406 229.839844 123.195312 228.191406 122.867188 C 226.542969 122.539062 224.914062 122.128906 223.304688 121.640625 C 221.695312 121.152344 220.113281 120.585938 218.558594 119.941406 C 217.003906 119.300781 215.484375 118.582031 214 117.789062 C 212.519531 116.996094 211.078125 116.132812 209.679688 115.195312 C 208.28125 114.261719 206.929688 113.261719 205.628906 112.195312 C 204.328125 111.128906 203.085938 110 201.894531 108.808594 C 200.707031 107.621094 199.578125 106.375 198.511719 105.074219 C 197.445312 103.773438 196.441406 102.425781 195.507812 101.027344 C 194.574219 99.628906 193.710938 98.1875 192.917969 96.703125 C 192.125 95.222656 191.40625 93.703125 190.761719 92.148438 C 190.117188 90.59375 189.554688 89.011719 189.066406 87.402344 C 188.578125 85.792969 188.167969 84.164062 187.839844 82.515625 C 187.511719 80.863281 187.265625 79.203125 187.101562 77.527344 C 186.9375 75.855469 186.851562 74.175781 186.851562 72.496094 C 186.851562 70.8125 186.9375 69.132812 187.101562 67.460938 C 187.265625 65.785156 187.511719 64.125 187.839844 62.476562 C 188.167969 60.824219 188.578125 59.195312 189.066406 57.585938 C 189.554688 55.976562 190.117188 54.394531 190.761719 52.839844 C 191.40625 51.285156 192.125 49.769531 192.917969 48.285156 C 193.710938 46.800781 194.574219 45.359375 195.507812 43.960938 C 196.441406 42.5625 197.445312 41.214844 198.511719 39.914062 C 199.578125 38.613281 200.707031 37.367188 201.894531 36.179688 C 203.085938 34.988281 204.328125 33.859375 205.628906 32.792969 C 206.929688 31.726562 208.28125 30.726562 209.679688 29.792969 C 211.078125 28.855469 212.519531 27.992188 214 27.199219 C 215.484375 26.40625 217.003906 25.6875 218.558594 25.046875 C 220.113281 24.402344 221.695312 23.835938 223.304688 23.347656 C 224.914062 22.859375 226.542969 22.453125 228.191406 22.125 C 229.839844 21.796875 231.503906 21.546875 233.175781 21.382812 C 234.851562 21.21875 236.53125 21.136719 238.210938 21.136719 C 239.894531 21.136719 241.570312 21.21875 243.246094 21.382812 C 244.917969 21.546875 246.582031 21.796875 248.230469 22.125 C 249.878906 22.453125 251.511719 22.859375 253.121094 23.347656 C 254.730469 23.835938 256.3125 24.402344 257.867188 25.046875 C 259.417969 25.6875 260.9375 26.40625 262.421875 27.199219 C 263.90625 27.992188 265.347656 28.855469 266.746094 29.792969 C 268.144531 30.726562 269.492188 31.726562 270.792969 32.792969 C 272.09375 33.859375 273.335938 34.988281 274.527344 36.179688 C 275.714844 37.367188 276.84375 38.613281 277.910156 39.914062 C 278.980469 41.214844 279.980469 42.5625 280.914062 43.960938 C 281.847656 45.359375 282.710938 46.800781 283.503906 48.285156 C 284.296875 49.769531 285.015625 51.285156 285.660156 52.839844 C 286.304688 54.394531 286.871094 55.976562 287.359375 57.585938 C 287.847656 59.195312 288.253906 60.824219 288.582031 62.476562 C 288.910156 64.125 289.15625 65.785156 289.320312 67.460938 C 289.488281 69.132812 289.570312 70.8125 289.570312 72.496094 Z M 289.570312 72.496094 " fill-opacity="1" fill-rule="nonzero"/></g><path fill="#fdfdfd" d="M 270.910156 72.496094 C 270.910156 73.566406 270.859375 74.632812 270.753906 75.699219 C 270.648438 76.765625 270.492188 77.824219 270.28125 78.875 C 270.074219 79.925781 269.8125 80.960938 269.503906 81.988281 C 269.191406 83.011719 268.832031 84.019531 268.421875 85.007812 C 268.011719 85.996094 267.554688 86.964844 267.050781 87.910156 C 266.542969 88.851562 265.996094 89.769531 265.398438 90.660156 C 264.804688 91.550781 264.167969 92.410156 263.488281 93.238281 C 262.808594 94.066406 262.089844 94.859375 261.332031 95.617188 C 260.574219 96.375 259.785156 97.09375 258.957031 97.769531 C 258.128906 98.449219 257.269531 99.085938 256.378906 99.683594 C 255.488281 100.277344 254.570312 100.828125 253.625 101.332031 C 252.679688 101.835938 251.714844 102.292969 250.726562 102.703125 C 249.734375 103.113281 248.726562 103.476562 247.703125 103.785156 C 246.679688 104.097656 245.640625 104.355469 244.589844 104.566406 C 243.539062 104.773438 242.480469 104.929688 241.417969 105.035156 C 240.351562 105.140625 239.28125 105.195312 238.210938 105.195312 C 237.140625 105.195312 236.070312 105.140625 235.007812 105.035156 C 233.941406 104.929688 232.882812 104.773438 231.832031 104.566406 C 230.78125 104.355469 229.746094 104.097656 228.71875 103.785156 C 227.695312 103.476562 226.6875 103.113281 225.699219 102.703125 C 224.707031 102.292969 223.742188 101.835938 222.796875 101.332031 C 221.851562 100.828125 220.933594 100.277344 220.042969 99.683594 C 219.152344 99.085938 218.296875 98.449219 217.46875 97.769531 C 216.640625 97.09375 215.847656 96.375 215.089844 95.617188 C 214.332031 94.859375 213.613281 94.066406 212.933594 93.238281 C 212.253906 92.410156 211.617188 91.550781 211.023438 90.660156 C 210.429688 89.769531 209.878906 88.851562 209.375 87.910156 C 208.867188 86.964844 208.410156 85.996094 208 85.007812 C 207.589844 84.019531 207.230469 83.011719 206.921875 81.988281 C 206.609375 80.960938 206.347656 79.925781 206.140625 78.875 C 205.929688 77.824219 205.773438 76.765625 205.667969 75.699219 C 205.566406 74.632812 205.511719 73.566406 205.511719 72.496094 C 205.511719 71.421875 205.566406 70.355469 205.667969 69.289062 C 205.773438 68.222656 205.933594 67.164062 206.140625 66.113281 C 206.347656 65.066406 206.609375 64.027344 206.921875 63.003906 C 207.230469 61.976562 207.589844 60.96875 208 59.980469 C 208.410156 58.992188 208.867188 58.023438 209.375 57.082031 C 209.878906 56.136719 210.429688 55.21875 211.023438 54.328125 C 211.617188 53.4375 212.253906 52.578125 212.933594 51.75 C 213.613281 50.921875 214.332031 50.128906 215.089844 49.371094 C 215.847656 48.617188 216.640625 47.898438 217.46875 47.21875 C 218.296875 46.539062 219.152344 45.902344 220.042969 45.304688 C 220.933594 44.710938 221.851562 44.160156 222.796875 43.65625 C 223.742188 43.152344 224.707031 42.695312 225.699219 42.285156 C 226.6875 41.875 227.695312 41.515625 228.71875 41.203125 C 229.746094 40.890625 230.78125 40.632812 231.832031 40.421875 C 232.882812 40.214844 233.941406 40.058594 235.007812 39.953125 C 236.070312 39.847656 237.140625 39.796875 238.210938 39.796875 C 239.28125 39.796875 240.351562 39.847656 241.417969 39.953125 C 242.480469 40.058594 243.539062 40.214844 244.589844 40.421875 C 245.640625 40.632812 246.679688 40.890625 247.703125 41.203125 C 248.726562 41.515625 249.734375 41.875 250.726562 42.285156 C 251.714844 42.695312 252.679688 43.152344 253.625 43.65625 C 254.570312 44.160156 255.488281 44.710938 256.378906 45.304688 C 257.269531 45.902344 258.128906 46.539062 258.957031 47.21875 C 259.785156 47.898438 260.574219 48.617188 261.332031 49.371094 C 262.089844 50.128906 262.808594 50.921875 263.488281 51.75 C 264.167969 52.578125 264.804688 53.4375 265.398438 54.328125 C 265.996094 55.21875 266.542969 56.136719 267.050781 57.082031 C 267.554688 58.023438 268.011719 58.992188 268.421875 59.980469 C 268.832031 60.96875 269.191406 61.976562 269.503906 63.003906 C 269.8125 64.027344 270.074219 65.066406 270.28125 66.113281 C 270.492188 67.164062 270.648438 68.222656 270.753906 69.289062 C 270.859375 70.355469 270.910156 71.421875 270.910156 72.496094 Z M 270.910156 72.496094 " fill-opacity="1" fill-rule="nonzero"/><path fill="#bf4da5" d="M 86.167969 117.570312 L 86.167969 74.527344 C 86.167969 74.527344 129.214844 74.527344 129.214844 117.570312 Z M 86.167969 117.570312 " fill-opacity="1" fill-rule="nonzero"/><g clip-path="url(#492d75bdab)"><path fill="#bf4da5" d="M 344.066406 172.808594 C 334.832031 172.808594 326.519531 176.875 320.976562 183.523438 C 313.214844 138.632812 280.332031 115.167969 257.980469 104.269531 C 246.894531 98.914062 234.703125 96.140625 222.140625 96.140625 L 172.074219 96.140625 C 172.074219 53.097656 129.03125 53.097656 129.03125 53.097656 L 129.03125 98.171875 C 82.84375 107.59375 47.375 146.574219 43.496094 194.421875 C 16.335938 194.421875 0.265625 182.046875 0.265625 182.046875 L 0.265625 225.089844 C 0.265625 225.089844 0.265625 246.519531 43.308594 268.136719 C 86.355469 289.566406 86.355469 289.566406 86.355469 354.039062 C 86.355469 354.039062 107.785156 354.039062 129.398438 310.996094 L 236.917969 310.996094 L 236.917969 354.039062 C 236.917969 354.039062 318.757812 333.535156 322.636719 212.710938 L 331.875 212.710938 L 331.875 203.660156 C 331.875 196.824219 337.417969 191.28125 344.253906 191.28125 C 351.089844 191.28125 356.628906 196.824219 356.628906 203.660156 C 356.628906 210.496094 351.089844 216.039062 344.253906 216.039062 L 344.253906 234.328125 C 361.0625 234.328125 374.917969 220.65625 374.917969 203.660156 C 374.917969 186.664062 360.878906 172.808594 344.066406 172.808594 Z M 344.066406 172.808594 " fill-opacity="1" fill-rule="nonzero"/></g><path fill="#fdfdfd" d="M 95.222656 164.863281 C 95.222656 165.375 95.171875 165.878906 95.074219 166.378906 C 94.972656 166.878906 94.824219 167.363281 94.632812 167.835938 C 94.4375 168.304688 94.195312 168.753906 93.914062 169.175781 C 93.632812 169.597656 93.308594 169.992188 92.949219 170.351562 C 92.589844 170.710938 92.195312 171.035156 91.773438 171.316406 C 91.351562 171.597656 90.902344 171.839844 90.433594 172.035156 C 89.960938 172.226562 89.476562 172.375 88.976562 172.476562 C 88.476562 172.574219 87.972656 172.625 87.460938 172.625 C 86.953125 172.625 86.449219 172.574219 85.949219 172.476562 C 85.449219 172.375 84.964844 172.226562 84.492188 172.035156 C 84.023438 171.839844 83.574219 171.597656 83.152344 171.316406 C 82.726562 171.035156 82.335938 170.710938 81.976562 170.351562 C 81.617188 169.992188 81.292969 169.597656 81.011719 169.175781 C 80.726562 168.753906 80.488281 168.304688 80.292969 167.835938 C 80.097656 167.363281 79.953125 166.878906 79.851562 166.378906 C 79.753906 165.878906 79.703125 165.375 79.703125 164.863281 C 79.703125 164.355469 79.753906 163.851562 79.851562 163.351562 C 79.953125 162.851562 80.097656 162.367188 80.292969 161.894531 C 80.488281 161.425781 80.726562 160.976562 81.011719 160.554688 C 81.292969 160.128906 81.617188 159.738281 81.976562 159.378906 C 82.335938 159.019531 82.726562 158.695312 83.152344 158.414062 C 83.574219 158.128906 84.023438 157.890625 84.492188 157.695312 C 84.964844 157.5 85.449219 157.355469 85.949219 157.253906 C 86.449219 157.15625 86.953125 157.105469 87.460938 157.105469 C 87.972656 157.105469 88.476562 157.15625 88.976562 157.253906 C 89.476562 157.355469 89.960938 157.5 90.433594 157.695312 C 90.902344 157.890625 91.351562 158.128906 91.773438 158.414062 C 92.195312 158.695312 92.589844 159.019531 92.949219 159.378906 C 93.308594 159.738281 93.632812 160.128906 93.914062 160.554688 C 94.195312 160.976562 94.4375 161.425781 94.632812 161.894531 C 94.824219 162.367188 94.972656 162.851562 95.074219 163.351562 C 95.171875 163.851562 95.222656 164.355469 95.222656 164.863281 Z M 95.222656 164.863281 " fill-opacity="1" fill-rule="nonzero"/></svg>