<svg xmlns="http://www.w3.org/2000/svg" xmlns:xlink="http://www.w3.org/1999/xlink" width="500" zoomAndPan="magnify" viewBox="0 0 375 374.999991" height="500" preserveAspectRatio="xMidYMid meet" version="1.0"><defs><g/><clipPath id="79b2598d5c"><path d="M 92 93.089844 L 134 93.089844 L 134 135 L 92 135 Z M 92 93.089844 " clip-rule="nonzero"/></clipPath><clipPath id="79e14b0752"><path d="M 17.703125 105 L 168.453125 105 L 168.453125 226.589844 L 17.703125 226.589844 Z M 17.703125 105 " clip-rule="nonzero"/></clipPath></defs><g clip-path="url(#79b2598d5c)"><path fill="#ffde59" d="M 133.941406 113.707031 C 133.941406 114.382812 133.90625 115.054688 133.839844 115.726562 C 133.777344 116.398438 133.675781 117.066406 133.542969 117.730469 C 133.414062 118.390625 133.25 119.046875 133.054688 119.691406 C 132.855469 120.335938 132.628906 120.972656 132.371094 121.597656 C 132.113281 122.21875 131.824219 122.828125 131.507812 123.425781 C 131.1875 124.019531 130.839844 124.597656 130.464844 125.160156 C 130.089844 125.722656 129.691406 126.261719 129.261719 126.785156 C 128.832031 127.308594 128.378906 127.808594 127.902344 128.285156 C 127.425781 128.761719 126.925781 129.214844 126.402344 129.644531 C 125.882812 130.070312 125.339844 130.472656 124.777344 130.847656 C 124.21875 131.222656 123.640625 131.570312 123.042969 131.886719 C 122.449219 132.207031 121.839844 132.496094 121.214844 132.753906 C 120.589844 133.011719 119.957031 133.238281 119.308594 133.433594 C 118.664062 133.632812 118.007812 133.792969 117.347656 133.925781 C 116.683594 134.058594 116.019531 134.15625 115.347656 134.222656 C 114.671875 134.289062 114 134.324219 113.324219 134.324219 C 112.648438 134.324219 111.976562 134.289062 111.304688 134.222656 C 110.632812 134.15625 109.964844 134.058594 109.304688 133.925781 C 108.640625 133.792969 107.988281 133.632812 107.339844 133.433594 C 106.695312 133.238281 106.058594 133.011719 105.4375 132.753906 C 104.8125 132.496094 104.203125 132.207031 103.605469 131.886719 C 103.011719 131.570312 102.433594 131.222656 101.871094 130.847656 C 101.308594 130.472656 100.769531 130.070312 100.246094 129.644531 C 99.722656 129.214844 99.226562 128.761719 98.746094 128.285156 C 98.269531 127.808594 97.816406 127.308594 97.390625 126.785156 C 96.960938 126.261719 96.558594 125.722656 96.183594 125.160156 C 95.808594 124.597656 95.460938 124.019531 95.144531 123.425781 C 94.824219 122.828125 94.535156 122.21875 94.277344 121.597656 C 94.019531 120.972656 93.792969 120.335938 93.597656 119.691406 C 93.402344 119.046875 93.238281 118.390625 93.105469 117.730469 C 92.972656 117.066406 92.875 116.398438 92.808594 115.726562 C 92.742188 115.054688 92.710938 114.382812 92.710938 113.707031 C 92.710938 113.03125 92.742188 112.359375 92.808594 111.6875 C 92.875 111.015625 92.972656 110.347656 93.105469 109.683594 C 93.238281 109.023438 93.402344 108.367188 93.597656 107.722656 C 93.792969 107.078125 94.019531 106.441406 94.277344 105.816406 C 94.535156 105.195312 94.824219 104.585938 95.144531 103.988281 C 95.460938 103.394531 95.808594 102.816406 96.183594 102.253906 C 96.558594 101.691406 96.960938 101.148438 97.386719 100.628906 C 97.816406 100.105469 98.269531 99.605469 98.746094 99.128906 C 99.226562 98.652344 99.722656 98.199219 100.246094 97.769531 C 100.769531 97.34375 101.308594 96.941406 101.871094 96.566406 C 102.433594 96.191406 103.011719 95.84375 103.605469 95.523438 C 104.203125 95.207031 104.8125 94.917969 105.4375 94.660156 C 106.058594 94.402344 106.695312 94.175781 107.339844 93.980469 C 107.988281 93.78125 108.640625 93.617188 109.304688 93.488281 C 109.964844 93.355469 110.632812 93.257812 111.304688 93.191406 C 111.976562 93.125 112.648438 93.089844 113.324219 93.089844 C 114 93.089844 114.671875 93.125 115.347656 93.191406 C 116.019531 93.257812 116.683594 93.355469 117.347656 93.488281 C 118.007812 93.617188 118.664062 93.78125 119.308594 93.980469 C 119.957031 94.175781 120.589844 94.402344 121.214844 94.660156 C 121.839844 94.917969 122.449219 95.207031 123.042969 95.523438 C 123.640625 95.84375 124.21875 96.191406 124.777344 96.566406 C 125.339844 96.941406 125.882812 97.34375 126.402344 97.769531 C 126.925781 98.199219 127.425781 98.652344 127.902344 99.128906 C 128.378906 99.605469 128.832031 100.105469 129.261719 100.628906 C 129.691406 101.148438 130.089844 101.691406 130.464844 102.253906 C 130.839844 102.816406 131.1875 103.394531 131.507812 103.988281 C 131.824219 104.585938 132.113281 105.195312 132.371094 105.816406 C 132.628906 106.441406 132.855469 107.078125 133.054688 107.722656 C 133.25 108.367188 133.414062 109.023438 133.542969 109.683594 C 133.675781 110.347656 133.777344 111.015625 133.839844 111.6875 C 133.90625 112.359375 133.941406 113.03125 133.941406 113.707031 Z M 133.941406 113.707031 " fill-opacity="1" fill-rule="nonzero"/></g><path fill="#fdfdfd" d="M 126.449219 113.707031 C 126.449219 114.570312 126.367188 115.421875 126.199219 116.269531 C 126.03125 117.113281 125.78125 117.933594 125.453125 118.730469 C 125.121094 119.527344 124.71875 120.28125 124.238281 121 C 123.761719 121.714844 123.214844 122.378906 122.605469 122.988281 C 121.996094 123.597656 121.335938 124.140625 120.617188 124.621094 C 119.902344 125.097656 119.144531 125.503906 118.347656 125.832031 C 117.550781 126.164062 116.730469 126.414062 115.886719 126.582031 C 115.039062 126.75 114.1875 126.832031 113.324219 126.832031 C 112.464844 126.832031 111.609375 126.75 110.765625 126.582031 C 109.917969 126.414062 109.097656 126.164062 108.300781 125.832031 C 107.503906 125.503906 106.75 125.097656 106.03125 124.621094 C 105.316406 124.140625 104.652344 123.597656 104.042969 122.988281 C 103.433594 122.378906 102.890625 121.714844 102.410156 121 C 101.933594 120.28125 101.527344 119.527344 101.199219 118.730469 C 100.867188 117.933594 100.621094 117.113281 100.453125 116.269531 C 100.28125 115.421875 100.199219 114.570312 100.199219 113.707031 C 100.199219 112.84375 100.28125 111.992188 100.453125 111.144531 C 100.621094 110.300781 100.867188 109.480469 101.199219 108.683594 C 101.527344 107.886719 101.933594 107.132812 102.410156 106.414062 C 102.890625 105.699219 103.433594 105.035156 104.042969 104.425781 C 104.652344 103.816406 105.316406 103.273438 106.03125 102.792969 C 106.75 102.3125 107.503906 101.910156 108.300781 101.578125 C 109.097656 101.25 109.917969 101 110.765625 100.832031 C 111.609375 100.664062 112.464844 100.582031 113.324219 100.582031 C 114.1875 100.582031 115.039062 100.664062 115.886719 100.832031 C 116.730469 101 117.550781 101.25 118.347656 101.578125 C 119.144531 101.910156 119.902344 102.3125 120.617188 102.792969 C 121.335938 103.273438 121.996094 103.816406 122.605469 104.425781 C 123.214844 105.035156 123.761719 105.699219 124.238281 106.414062 C 124.71875 107.132812 125.121094 107.886719 125.453125 108.683594 C 125.78125 109.480469 126.03125 110.300781 126.199219 111.144531 C 126.367188 111.992188 126.449219 112.84375 126.449219 113.707031 Z M 126.449219 113.707031 " fill-opacity="1" fill-rule="nonzero"/><path fill="#bf4da5" d="M 52.292969 131.800781 L 52.292969 114.523438 C 52.292969 114.523438 69.570312 114.523438 69.570312 131.800781 Z M 52.292969 131.800781 " fill-opacity="1" fill-rule="nonzero"/><g clip-path="url(#79e14b0752)"><path fill="#bf4da5" d="M 155.816406 153.976562 C 152.109375 153.976562 148.773438 155.605469 146.546875 158.277344 C 143.433594 140.253906 130.234375 130.835938 121.261719 126.460938 C 116.808594 124.3125 111.914062 123.199219 106.875 123.199219 L 86.777344 123.199219 C 86.777344 105.921875 69.496094 105.921875 69.496094 105.921875 L 69.496094 124.015625 C 50.957031 127.796875 36.71875 143.445312 35.164062 162.652344 C 24.261719 162.652344 17.808594 157.683594 17.808594 157.683594 L 17.808594 174.960938 C 17.808594 174.960938 17.808594 183.5625 35.089844 192.238281 C 52.367188 200.84375 52.367188 200.84375 52.367188 226.722656 C 52.367188 226.722656 60.96875 226.722656 69.644531 209.445312 L 112.804688 209.445312 L 112.804688 226.722656 C 112.804688 226.722656 145.65625 218.492188 147.214844 169.992188 L 150.921875 169.992188 L 150.921875 166.359375 C 150.921875 163.613281 153.148438 161.390625 155.890625 161.390625 C 158.636719 161.390625 160.859375 163.613281 160.859375 166.359375 C 160.859375 169.101562 158.636719 171.328125 155.890625 171.328125 L 155.890625 178.667969 C 162.640625 178.667969 168.203125 173.179688 168.203125 166.359375 C 168.203125 159.535156 162.566406 153.976562 155.816406 153.976562 Z M 155.816406 153.976562 " fill-opacity="1" fill-rule="nonzero"/></g><path fill="#fdfdfd" d="M 55.925781 150.785156 C 55.925781 151.199219 55.847656 151.597656 55.691406 151.976562 C 55.53125 152.359375 55.304688 152.695312 55.015625 152.988281 C 54.722656 153.28125 54.386719 153.503906 54.003906 153.664062 C 53.621094 153.820312 53.226562 153.902344 52.8125 153.902344 C 52.398438 153.902344 52 153.820312 51.621094 153.664062 C 51.238281 153.503906 50.902344 153.28125 50.609375 152.988281 C 50.316406 152.695312 50.09375 152.359375 49.933594 151.976562 C 49.777344 151.597656 49.699219 151.199219 49.699219 150.785156 C 49.699219 150.371094 49.777344 149.976562 49.933594 149.59375 C 50.09375 149.210938 50.316406 148.875 50.609375 148.582031 C 50.902344 148.292969 51.238281 148.066406 51.621094 147.910156 C 52 147.75 52.398438 147.671875 52.8125 147.671875 C 53.226562 147.671875 53.621094 147.75 54.003906 147.910156 C 54.386719 148.066406 54.722656 148.292969 55.015625 148.582031 C 55.304688 148.875 55.53125 149.210938 55.691406 149.59375 C 55.847656 149.976562 55.925781 150.371094 55.925781 150.785156 Z M 55.925781 150.785156 " fill-opacity="1" fill-rule="nonzero"/><g fill="#bf4da5" fill-opacity="1"><g transform="translate(169.605594, 210.203043)"><g><path d="M 4.59375 0 L 4.59375 -49.15625 L 24.03125 -49.15625 C 27.664062 -49.15625 30.9375 -48.507812 33.84375 -47.21875 C 36.757812 -45.925781 39.066406 -44.039062 40.765625 -41.5625 C 42.460938 -39.082031 43.3125 -36.0625 43.3125 -32.5 C 43.3125 -29.257812 42.597656 -26.476562 41.171875 -24.15625 C 39.742188 -21.832031 37.710938 -20.046875 35.078125 -18.796875 C 32.453125 -17.554688 29.335938 -16.9375 25.734375 -16.9375 L 17.8125 -16.9375 L 17.8125 0 Z M 17.6875 -26.796875 L 25.328125 -26.796875 C 27.003906 -26.796875 28.394531 -27.460938 29.5 -28.796875 C 30.613281 -30.128906 31.171875 -31.59375 31.171875 -33.1875 C 31.171875 -34.882812 30.566406 -36.335938 29.359375 -37.546875 C 28.148438 -38.765625 26.804688 -39.375 25.328125 -39.375 L 17.6875 -39.375 Z M 17.6875 -26.796875 "/></g></g></g><g fill="#2e2e2e" fill-opacity="1"><g transform="translate(214.957153, 210.203043)"><g><path d="M 16.3125 -35.15625 L 16.3125 0 L 3.734375 0 L 3.734375 -35.15625 Z M 16.3125 -49.15625 L 16.3125 -38.015625 L 3.734375 -38.015625 L 3.734375 -49.15625 Z M 16.3125 -49.15625 "/></g></g></g><g fill="#2e2e2e" fill-opacity="1"><g transform="translate(235.014857, 210.203043)"><g><path d="M 21.015625 11.625 C 14.078125 11.625 8.90625 10.835938 5.5 9.265625 C 2.101562 7.691406 0.40625 5.78125 0.40625 3.53125 C 0.40625 2.40625 0.734375 1.472656 1.390625 0.734375 C 2.046875 -0.00390625 2.816406 -0.578125 3.703125 -0.984375 C 4.585938 -1.390625 5.390625 -1.679688 6.109375 -1.859375 C 6.835938 -2.046875 7.269531 -2.148438 7.40625 -2.171875 C 7.070312 -2.359375 6.503906 -2.664062 5.703125 -3.09375 C 4.910156 -3.519531 4.171875 -4.132812 3.484375 -4.9375 C 2.796875 -5.75 2.453125 -6.800781 2.453125 -8.09375 C 2.453125 -9.5 3.113281 -10.789062 4.4375 -11.96875 C 5.757812 -13.144531 7.796875 -13.914062 10.546875 -14.28125 C 8.003906 -15.414062 6.109375 -16.976562 4.859375 -18.96875 C 3.609375 -20.96875 2.984375 -22.894531 2.984375 -24.75 C 2.984375 -27.101562 3.8125 -29.097656 5.46875 -30.734375 C 7.125 -32.367188 9.304688 -33.601562 12.015625 -34.4375 C 14.722656 -35.28125 17.675781 -35.703125 20.875 -35.703125 C 23.394531 -35.703125 25.425781 -35.453125 26.96875 -34.953125 C 28.507812 -34.453125 29.925781 -33.863281 31.21875 -33.1875 C 31.875 -33.4375 32.660156 -33.734375 33.578125 -34.078125 C 34.492188 -34.429688 35.476562 -34.8125 36.53125 -35.21875 C 37.582031 -35.625 38.640625 -36.039062 39.703125 -36.46875 C 40.773438 -36.90625 41.796875 -37.328125 42.765625 -37.734375 L 42.703125 -28.359375 L 36.71875 -27.546875 C 36.851562 -27.046875 36.953125 -26.515625 37.015625 -25.953125 C 37.085938 -25.398438 37.125 -25.019531 37.125 -24.8125 C 37.125 -22.820312 36.476562 -20.898438 35.1875 -19.046875 C 33.894531 -17.203125 31.976562 -15.6875 29.4375 -14.5 C 26.90625 -13.3125 23.78125 -12.71875 20.0625 -12.71875 C 19.519531 -12.71875 18.75 -12.734375 17.75 -12.765625 C 16.75 -12.796875 15.957031 -12.847656 15.375 -12.921875 C 15.03125 -12.847656 14.785156 -12.769531 14.640625 -12.6875 C 14.492188 -12.613281 14.421875 -12.488281 14.421875 -12.3125 C 14.421875 -11.832031 14.925781 -11.546875 15.9375 -11.453125 C 16.957031 -11.367188 18.332031 -11.269531 20.0625 -11.15625 C 20.675781 -11.132812 21.617188 -11.085938 22.890625 -11.015625 C 24.171875 -10.941406 25.5625 -10.851562 27.0625 -10.75 C 31.9375 -10.40625 35.488281 -9.238281 37.71875 -7.25 C 39.957031 -5.269531 41.078125 -2.921875 41.078125 -0.203125 C 41.078125 3.191406 39.398438 6.007812 36.046875 8.25 C 32.691406 10.5 27.679688 11.625 21.015625 11.625 Z M 23.046875 4.6875 C 25.359375 4.6875 26.851562 4.484375 27.53125 4.078125 C 28.21875 3.671875 28.5625 3.148438 28.5625 2.515625 C 28.5625 1.765625 28.175781 1.15625 27.40625 0.6875 C 26.632812 0.226562 25.566406 -0.046875 24.203125 -0.140625 L 17.8125 -0.546875 C 16.59375 -0.609375 15.65625 -0.507812 15 -0.25 C 14.34375 0.0078125 13.890625 0.347656 13.640625 0.765625 C 13.390625 1.179688 13.265625 1.582031 13.265625 1.96875 C 13.265625 3.082031 14.054688 3.8125 15.640625 4.15625 C 17.222656 4.507812 19.691406 4.6875 23.046875 4.6875 Z M 20.46875 -19.65625 C 21.738281 -19.65625 22.757812 -20.09375 23.53125 -20.96875 C 24.300781 -21.851562 24.6875 -22.957031 24.6875 -24.28125 C 24.6875 -25.613281 24.300781 -26.769531 23.53125 -27.75 C 22.757812 -28.738281 21.738281 -29.234375 20.46875 -29.234375 C 19.21875 -29.234375 18.203125 -28.738281 17.421875 -27.75 C 16.640625 -26.769531 16.25 -25.613281 16.25 -24.28125 C 16.25 -22.957031 16.640625 -21.851562 17.421875 -20.96875 C 18.203125 -20.09375 19.21875 -19.65625 20.46875 -19.65625 Z M 20.46875 -19.65625 "/></g></g></g><g fill="#2e2e2e" fill-opacity="1"><g transform="translate(278.121921, 210.203043)"><g><path d="M 21.015625 11.625 C 14.078125 11.625 8.90625 10.835938 5.5 9.265625 C 2.101562 7.691406 0.40625 5.78125 0.40625 3.53125 C 0.40625 2.40625 0.734375 1.472656 1.390625 0.734375 C 2.046875 -0.00390625 2.816406 -0.578125 3.703125 -0.984375 C 4.585938 -1.390625 5.390625 -1.679688 6.109375 -1.859375 C 6.835938 -2.046875 7.269531 -2.148438 7.40625 -2.171875 C 7.070312 -2.359375 6.503906 -2.664062 5.703125 -3.09375 C 4.910156 -3.519531 4.171875 -4.132812 3.484375 -4.9375 C 2.796875 -5.75 2.453125 -6.800781 2.453125 -8.09375 C 2.453125 -9.5 3.113281 -10.789062 4.4375 -11.96875 C 5.757812 -13.144531 7.796875 -13.914062 10.546875 -14.28125 C 8.003906 -15.414062 6.109375 -16.976562 4.859375 -18.96875 C 3.609375 -20.96875 2.984375 -22.894531 2.984375 -24.75 C 2.984375 -27.101562 3.8125 -29.097656 5.46875 -30.734375 C 7.125 -32.367188 9.304688 -33.601562 12.015625 -34.4375 C 14.722656 -35.28125 17.675781 -35.703125 20.875 -35.703125 C 23.394531 -35.703125 25.425781 -35.453125 26.96875 -34.953125 C 28.507812 -34.453125 29.925781 -33.863281 31.21875 -33.1875 C 31.875 -33.4375 32.660156 -33.734375 33.578125 -34.078125 C 34.492188 -34.429688 35.476562 -34.8125 36.53125 -35.21875 C 37.582031 -35.625 38.640625 -36.039062 39.703125 -36.46875 C 40.773438 -36.90625 41.796875 -37.328125 42.765625 -37.734375 L 42.703125 -28.359375 L 36.71875 -27.546875 C 36.851562 -27.046875 36.953125 -26.515625 37.015625 -25.953125 C 37.085938 -25.398438 37.125 -25.019531 37.125 -24.8125 C 37.125 -22.820312 36.476562 -20.898438 35.1875 -19.046875 C 33.894531 -17.203125 31.976562 -15.6875 29.4375 -14.5 C 26.90625 -13.3125 23.78125 -12.71875 20.0625 -12.71875 C 19.519531 -12.71875 18.75 -12.734375 17.75 -12.765625 C 16.75 -12.796875 15.957031 -12.847656 15.375 -12.921875 C 15.03125 -12.847656 14.785156 -12.769531 14.640625 -12.6875 C 14.492188 -12.613281 14.421875 -12.488281 14.421875 -12.3125 C 14.421875 -11.832031 14.925781 -11.546875 15.9375 -11.453125 C 16.957031 -11.367188 18.332031 -11.269531 20.0625 -11.15625 C 20.675781 -11.132812 21.617188 -11.085938 22.890625 -11.015625 C 24.171875 -10.941406 25.5625 -10.851562 27.0625 -10.75 C 31.9375 -10.40625 35.488281 -9.238281 37.71875 -7.25 C 39.957031 -5.269531 41.078125 -2.921875 41.078125 -0.203125 C 41.078125 3.191406 39.398438 6.007812 36.046875 8.25 C 32.691406 10.5 27.679688 11.625 21.015625 11.625 Z M 23.046875 4.6875 C 25.359375 4.6875 26.851562 4.484375 27.53125 4.078125 C 28.21875 3.671875 28.5625 3.148438 28.5625 2.515625 C 28.5625 1.765625 28.175781 1.15625 27.40625 0.6875 C 26.632812 0.226562 25.566406 -0.046875 24.203125 -0.140625 L 17.8125 -0.546875 C 16.59375 -0.609375 15.65625 -0.507812 15 -0.25 C 14.34375 0.0078125 13.890625 0.347656 13.640625 0.765625 C 13.390625 1.179688 13.265625 1.582031 13.265625 1.96875 C 13.265625 3.082031 14.054688 3.8125 15.640625 4.15625 C 17.222656 4.507812 19.691406 4.6875 23.046875 4.6875 Z M 20.46875 -19.65625 C 21.738281 -19.65625 22.757812 -20.09375 23.53125 -20.96875 C 24.300781 -21.851562 24.6875 -22.957031 24.6875 -24.28125 C 24.6875 -25.613281 24.300781 -26.769531 23.53125 -27.75 C 22.757812 -28.738281 21.738281 -29.234375 20.46875 -29.234375 C 19.21875 -29.234375 18.203125 -28.738281 17.421875 -27.75 C 16.640625 -26.769531 16.25 -25.613281 16.25 -24.28125 C 16.25 -22.957031 16.640625 -21.851562 17.421875 -20.96875 C 18.203125 -20.09375 19.21875 -19.65625 20.46875 -19.65625 Z M 20.46875 -19.65625 "/></g></g></g><g fill="#2e2e2e" fill-opacity="1"><g transform="translate(321.228985, 210.203043)"><g><path d="M 10.703125 11.21875 C 7.984375 11.21875 6.03125 10.96875 4.84375 10.46875 C 3.65625 9.96875 3.0625 9.71875 3.0625 9.71875 L 3.0625 1.359375 L 6.421875 1.5625 C 8.148438 1.695312 9.503906 1.644531 10.484375 1.40625 C 11.472656 1.164062 12.191406 0.847656 12.640625 0.453125 C 13.097656 0.0546875 13.394531 -0.316406 13.53125 -0.671875 C 13.664062 -1.035156 13.742188 -1.265625 13.765625 -1.359375 L 13.90625 -2.046875 L 0.265625 -35.15625 L 13.265625 -35.15625 L 19.921875 -16.046875 L 26.828125 -35.15625 L 39.78125 -35.15625 L 26.046875 -2.046875 C 24.523438 1.648438 22.96875 4.453125 21.375 6.359375 C 19.789062 8.265625 18.117188 9.550781 16.359375 10.21875 C 14.609375 10.882812 12.722656 11.21875 10.703125 11.21875 Z M 10.703125 11.21875 "/></g></g></g><g fill="#2e2e2e" fill-opacity="1"><g transform="translate(89.401301, 263.66531)"><g><path d="M 7.59375 -15.390625 C 8.664062 -15.390625 9.613281 -15.164062 10.4375 -14.71875 C 11.257812 -14.28125 11.921875 -13.6875 12.421875 -12.9375 C 12.929688 -12.195312 13.234375 -11.382812 13.328125 -10.5 L 11.25 -10.5 C 11.144531 -11.09375 10.929688 -11.628906 10.609375 -12.109375 C 10.296875 -12.597656 9.882812 -12.984375 9.375 -13.265625 C 8.863281 -13.554688 8.25 -13.703125 7.53125 -13.703125 C 6.613281 -13.703125 5.835938 -13.484375 5.203125 -13.046875 C 4.578125 -12.617188 4.097656 -11.957031 3.765625 -11.0625 C 3.441406 -10.164062 3.28125 -9.019531 3.28125 -7.625 C 3.28125 -5.507812 3.640625 -3.957031 4.359375 -2.96875 C 5.085938 -1.976562 6.144531 -1.484375 7.53125 -1.484375 C 8.25 -1.484375 8.863281 -1.632812 9.375 -1.9375 C 9.882812 -2.238281 10.296875 -2.640625 10.609375 -3.140625 C 10.929688 -3.640625 11.144531 -4.1875 11.25 -4.78125 L 13.328125 -4.78125 C 13.242188 -4.132812 13.066406 -3.507812 12.796875 -2.90625 C 12.535156 -2.3125 12.171875 -1.78125 11.703125 -1.3125 C 11.234375 -0.84375 10.65625 -0.472656 9.96875 -0.203125 C 9.289062 0.0664062 8.5 0.203125 7.59375 0.203125 C 6.226562 0.203125 5.0625 -0.101562 4.09375 -0.71875 C 3.132812 -1.34375 2.398438 -2.238281 1.890625 -3.40625 C 1.390625 -4.582031 1.140625 -5.992188 1.140625 -7.640625 C 1.140625 -9.285156 1.390625 -10.6875 1.890625 -11.84375 C 2.390625 -13 3.117188 -13.878906 4.078125 -14.484375 C 5.046875 -15.085938 6.21875 -15.390625 7.59375 -15.390625 Z M 7.59375 -15.390625 "/></g></g></g><g fill="#2e2e2e" fill-opacity="1"><g transform="translate(103.859743, 263.66531)"><g><path d="M 5.921875 0.203125 C 4.921875 0.203125 4.046875 -0.0078125 3.296875 -0.4375 C 2.546875 -0.863281 1.960938 -1.492188 1.546875 -2.328125 C 1.140625 -3.160156 0.9375 -4.179688 0.9375 -5.390625 C 0.9375 -6.523438 1.128906 -7.519531 1.515625 -8.375 C 1.898438 -9.226562 2.460938 -9.890625 3.203125 -10.359375 C 3.953125 -10.828125 4.859375 -11.0625 5.921875 -11.0625 C 6.921875 -11.0625 7.789062 -10.84375 8.53125 -10.40625 C 9.269531 -9.96875 9.84375 -9.328125 10.25 -8.484375 C 10.65625 -7.640625 10.859375 -6.609375 10.859375 -5.390625 C 10.859375 -4.285156 10.671875 -3.3125 10.296875 -2.46875 C 9.921875 -1.625 9.363281 -0.96875 8.625 -0.5 C 7.894531 -0.03125 6.992188 0.203125 5.921875 0.203125 Z M 5.921875 -1.328125 C 6.578125 -1.328125 7.128906 -1.488281 7.578125 -1.8125 C 8.023438 -2.144531 8.363281 -2.617188 8.59375 -3.234375 C 8.820312 -3.847656 8.9375 -4.578125 8.9375 -5.421875 C 8.9375 -6.203125 8.832031 -6.898438 8.625 -7.515625 C 8.425781 -8.140625 8.101562 -8.632812 7.65625 -9 C 7.21875 -9.363281 6.640625 -9.546875 5.921875 -9.546875 C 5.265625 -9.546875 4.707031 -9.378906 4.25 -9.046875 C 3.789062 -8.722656 3.441406 -8.253906 3.203125 -7.640625 C 2.972656 -7.023438 2.859375 -6.285156 2.859375 -5.421875 C 2.859375 -4.660156 2.960938 -3.96875 3.171875 -3.34375 C 3.390625 -2.726562 3.722656 -2.238281 4.171875 -1.875 C 4.617188 -1.507812 5.203125 -1.328125 5.921875 -1.328125 Z M 5.921875 -1.328125 "/></g></g></g><g fill="#2e2e2e" fill-opacity="1"><g transform="translate(115.661691, 263.66531)"><g><path d="M 1.609375 0 L 1.609375 -10.859375 L 3.484375 -10.859375 L 3.484375 -9.28125 C 3.660156 -9.582031 3.90625 -9.863281 4.21875 -10.125 C 4.53125 -10.394531 4.90625 -10.609375 5.34375 -10.765625 C 5.789062 -10.929688 6.304688 -11.015625 6.890625 -11.015625 C 7.578125 -11.015625 8.207031 -10.878906 8.78125 -10.609375 C 9.363281 -10.335938 9.828125 -9.910156 10.171875 -9.328125 C 10.515625 -8.753906 10.6875 -8.007812 10.6875 -7.09375 L 10.6875 0 L 8.75 0 L 8.75 -6.90625 C 8.75 -7.75 8.523438 -8.375 8.078125 -8.78125 C 7.628906 -9.195312 7.054688 -9.40625 6.359375 -9.40625 C 5.867188 -9.40625 5.410156 -9.328125 4.984375 -9.171875 C 4.554688 -9.015625 4.207031 -8.773438 3.9375 -8.453125 C 3.664062 -8.140625 3.53125 -7.738281 3.53125 -7.25 L 3.53125 0 Z M 1.609375 0 "/></g></g></g><g fill="#2e2e2e" fill-opacity="1"><g transform="translate(127.778637, 263.66531)"><g><path d="M 7.265625 -9.4375 L 4.8125 -9.4375 L 4.8125 -2.6875 C 4.8125 -2.300781 4.851562 -2.019531 4.9375 -1.84375 C 5.019531 -1.664062 5.15625 -1.550781 5.34375 -1.5 C 5.539062 -1.445312 5.804688 -1.421875 6.140625 -1.421875 L 7.328125 -1.421875 L 7.328125 -0.125 C 7.191406 -0.0703125 6.988281 -0.03125 6.71875 0 C 6.457031 0.03125 6.125 0.046875 5.71875 0.046875 C 4.96875 0.046875 4.382812 -0.0507812 3.96875 -0.25 C 3.5625 -0.457031 3.273438 -0.757812 3.109375 -1.15625 C 2.941406 -1.550781 2.859375 -2.039062 2.859375 -2.625 L 2.859375 -9.4375 L 1.109375 -9.4375 L 1.109375 -10.859375 L 2.921875 -10.859375 L 3.390625 -14.015625 L 4.8125 -14.015625 L 4.8125 -10.875 L 7.265625 -10.875 Z M 7.265625 -9.4375 "/></g></g></g><g fill="#2e2e2e" fill-opacity="1"><g transform="translate(136.231106, 263.66531)"><g><path d="M 1.609375 0 L 1.609375 -10.859375 L 3.453125 -10.859375 L 3.453125 -8.765625 C 3.640625 -9.285156 3.894531 -9.710938 4.21875 -10.046875 C 4.550781 -10.390625 4.925781 -10.644531 5.34375 -10.8125 C 5.769531 -10.976562 6.210938 -11.0625 6.671875 -11.0625 C 6.828125 -11.0625 6.984375 -11.050781 7.140625 -11.03125 C 7.296875 -11.007812 7.414062 -10.976562 7.5 -10.9375 L 7.5 -9.046875 C 7.394531 -9.097656 7.257812 -9.128906 7.09375 -9.140625 C 6.925781 -9.160156 6.785156 -9.171875 6.671875 -9.171875 C 6.242188 -9.203125 5.835938 -9.175781 5.453125 -9.09375 C 5.078125 -9.019531 4.742188 -8.882812 4.453125 -8.6875 C 4.171875 -8.488281 3.945312 -8.226562 3.78125 -7.90625 C 3.613281 -7.59375 3.53125 -7.207031 3.53125 -6.75 L 3.53125 0 Z M 1.609375 0 "/></g></g></g><g fill="#2e2e2e" fill-opacity="1"><g transform="translate(144.368575, 263.66531)"><g><path d="M 5.921875 0.203125 C 4.921875 0.203125 4.046875 -0.0078125 3.296875 -0.4375 C 2.546875 -0.863281 1.960938 -1.492188 1.546875 -2.328125 C 1.140625 -3.160156 0.9375 -4.179688 0.9375 -5.390625 C 0.9375 -6.523438 1.128906 -7.519531 1.515625 -8.375 C 1.898438 -9.226562 2.460938 -9.890625 3.203125 -10.359375 C 3.953125 -10.828125 4.859375 -11.0625 5.921875 -11.0625 C 6.921875 -11.0625 7.789062 -10.84375 8.53125 -10.40625 C 9.269531 -9.96875 9.84375 -9.328125 10.25 -8.484375 C 10.65625 -7.640625 10.859375 -6.609375 10.859375 -5.390625 C 10.859375 -4.285156 10.671875 -3.3125 10.296875 -2.46875 C 9.921875 -1.625 9.363281 -0.96875 8.625 -0.5 C 7.894531 -0.03125 6.992188 0.203125 5.921875 0.203125 Z M 5.921875 -1.328125 C 6.578125 -1.328125 7.128906 -1.488281 7.578125 -1.8125 C 8.023438 -2.144531 8.363281 -2.617188 8.59375 -3.234375 C 8.820312 -3.847656 8.9375 -4.578125 8.9375 -5.421875 C 8.9375 -6.203125 8.832031 -6.898438 8.625 -7.515625 C 8.425781 -8.140625 8.101562 -8.632812 7.65625 -9 C 7.21875 -9.363281 6.640625 -9.546875 5.921875 -9.546875 C 5.265625 -9.546875 4.707031 -9.378906 4.25 -9.046875 C 3.789062 -8.722656 3.441406 -8.253906 3.203125 -7.640625 C 2.972656 -7.023438 2.859375 -6.285156 2.859375 -5.421875 C 2.859375 -4.660156 2.960938 -3.96875 3.171875 -3.34375 C 3.390625 -2.726562 3.722656 -2.238281 4.171875 -1.875 C 4.617188 -1.507812 5.203125 -1.328125 5.921875 -1.328125 Z M 5.921875 -1.328125 "/></g></g></g><g fill="#2e2e2e" fill-opacity="1"><g transform="translate(156.170523, 263.66531)"><g><path d="M 4.34375 0.140625 C 3.757812 0.140625 3.285156 0.0625 2.921875 -0.09375 C 2.566406 -0.257812 2.289062 -0.476562 2.09375 -0.75 C 1.90625 -1.03125 1.773438 -1.34375 1.703125 -1.6875 C 1.640625 -2.039062 1.609375 -2.410156 1.609375 -2.796875 L 1.609375 -15.609375 L 3.515625 -15.609375 L 3.515625 -2.984375 C 3.515625 -2.429688 3.617188 -2.019531 3.828125 -1.75 C 4.046875 -1.476562 4.347656 -1.328125 4.734375 -1.296875 L 5.328125 -1.296875 L 5.328125 -0.03125 C 5.160156 0.0195312 4.988281 0.0625 4.8125 0.09375 C 4.644531 0.125 4.488281 0.140625 4.34375 0.140625 Z M 4.34375 0.140625 "/></g></g></g><g fill="#2e2e2e" fill-opacity="1"><g transform="translate(162.418001, 263.66531)"><g/></g></g><g fill="#2e2e2e" fill-opacity="1"><g transform="translate(167.258486, 263.66531)"><g><path d="M 2.671875 3.46875 C 2.035156 3.46875 1.597656 3.421875 1.359375 3.328125 C 1.128906 3.234375 1.015625 3.1875 1.015625 3.1875 L 1.015625 1.9375 L 2.109375 1.953125 C 2.515625 1.960938 2.847656 1.929688 3.109375 1.859375 C 3.378906 1.796875 3.59375 1.703125 3.75 1.578125 C 3.914062 1.460938 4.039062 1.332031 4.125 1.1875 C 4.21875 1.039062 4.289062 0.898438 4.34375 0.765625 L 4.71875 -0.265625 L 0.484375 -10.859375 L 2.453125 -10.859375 L 5.65625 -2.484375 L 8.828125 -10.859375 L 10.734375 -10.859375 L 6.15625 0.8125 C 5.875 1.5 5.554688 2.035156 5.203125 2.421875 C 4.859375 2.804688 4.472656 3.078125 4.046875 3.234375 C 3.628906 3.390625 3.171875 3.46875 2.671875 3.46875 Z M 2.671875 3.46875 "/></g></g></g><g fill="#2e2e2e" fill-opacity="1"><g transform="translate(178.461942, 263.66531)"><g><path d="M 5.921875 0.203125 C 4.921875 0.203125 4.046875 -0.0078125 3.296875 -0.4375 C 2.546875 -0.863281 1.960938 -1.492188 1.546875 -2.328125 C 1.140625 -3.160156 0.9375 -4.179688 0.9375 -5.390625 C 0.9375 -6.523438 1.128906 -7.519531 1.515625 -8.375 C 1.898438 -9.226562 2.460938 -9.890625 3.203125 -10.359375 C 3.953125 -10.828125 4.859375 -11.0625 5.921875 -11.0625 C 6.921875 -11.0625 7.789062 -10.84375 8.53125 -10.40625 C 9.269531 -9.96875 9.84375 -9.328125 10.25 -8.484375 C 10.65625 -7.640625 10.859375 -6.609375 10.859375 -5.390625 C 10.859375 -4.285156 10.671875 -3.3125 10.296875 -2.46875 C 9.921875 -1.625 9.363281 -0.96875 8.625 -0.5 C 7.894531 -0.03125 6.992188 0.203125 5.921875 0.203125 Z M 5.921875 -1.328125 C 6.578125 -1.328125 7.128906 -1.488281 7.578125 -1.8125 C 8.023438 -2.144531 8.363281 -2.617188 8.59375 -3.234375 C 8.820312 -3.847656 8.9375 -4.578125 8.9375 -5.421875 C 8.9375 -6.203125 8.832031 -6.898438 8.625 -7.515625 C 8.425781 -8.140625 8.101562 -8.632812 7.65625 -9 C 7.21875 -9.363281 6.640625 -9.546875 5.921875 -9.546875 C 5.265625 -9.546875 4.707031 -9.378906 4.25 -9.046875 C 3.789062 -8.722656 3.441406 -8.253906 3.203125 -7.640625 C 2.972656 -7.023438 2.859375 -6.285156 2.859375 -5.421875 C 2.859375 -4.660156 2.960938 -3.96875 3.171875 -3.34375 C 3.390625 -2.726562 3.722656 -2.238281 4.171875 -1.875 C 4.617188 -1.507812 5.203125 -1.328125 5.921875 -1.328125 Z M 5.921875 -1.328125 "/></g></g></g><g fill="#2e2e2e" fill-opacity="1"><g transform="translate(190.26389, 263.66531)"><g><path d="M 5.59375 0.203125 C 5.03125 0.203125 4.5 0.125 4 -0.03125 C 3.5 -0.1875 3.054688 -0.421875 2.671875 -0.734375 C 2.285156 -1.046875 1.976562 -1.429688 1.75 -1.890625 C 1.53125 -2.347656 1.421875 -2.878906 1.421875 -3.484375 L 1.421875 -10.859375 L 3.375 -10.859375 L 3.375 -3.6875 C 3.375 -2.976562 3.59375 -2.398438 4.03125 -1.953125 C 4.46875 -1.515625 5.125 -1.296875 6 -1.296875 C 6.800781 -1.296875 7.441406 -1.503906 7.921875 -1.921875 C 8.410156 -2.335938 8.65625 -2.960938 8.65625 -3.796875 L 8.65625 -10.859375 L 10.59375 -10.859375 L 10.59375 0 L 9.046875 0 L 8.84375 -2.078125 C 8.71875 -1.535156 8.492188 -1.09375 8.171875 -0.75 C 7.859375 -0.414062 7.476562 -0.171875 7.03125 -0.015625 C 6.582031 0.140625 6.101562 0.210938 5.59375 0.203125 Z M 5.59375 0.203125 "/></g></g></g><g fill="#2e2e2e" fill-opacity="1"><g transform="translate(202.286342, 263.66531)"><g><path d="M 1.609375 0 L 1.609375 -10.859375 L 3.453125 -10.859375 L 3.453125 -8.765625 C 3.640625 -9.285156 3.894531 -9.710938 4.21875 -10.046875 C 4.550781 -10.390625 4.925781 -10.644531 5.34375 -10.8125 C 5.769531 -10.976562 6.210938 -11.0625 6.671875 -11.0625 C 6.828125 -11.0625 6.984375 -11.050781 7.140625 -11.03125 C 7.296875 -11.007812 7.414062 -10.976562 7.5 -10.9375 L 7.5 -9.046875 C 7.394531 -9.097656 7.257812 -9.128906 7.09375 -9.140625 C 6.925781 -9.160156 6.785156 -9.171875 6.671875 -9.171875 C 6.242188 -9.203125 5.835938 -9.175781 5.453125 -9.09375 C 5.078125 -9.019531 4.742188 -8.882812 4.453125 -8.6875 C 4.171875 -8.488281 3.945312 -8.226562 3.78125 -7.90625 C 3.613281 -7.59375 3.53125 -7.207031 3.53125 -6.75 L 3.53125 0 Z M 1.609375 0 "/></g></g></g><g fill="#2e2e2e" fill-opacity="1"><g transform="translate(210.423812, 263.66531)"><g/></g></g><g fill="#2e2e2e" fill-opacity="1"><g transform="translate(215.264296, 263.66531)"><g><path d="M 6.96875 0.203125 C 6.332031 0.203125 5.796875 0.117188 5.359375 -0.046875 C 4.921875 -0.210938 4.5625 -0.425781 4.28125 -0.6875 C 4 -0.945312 3.78125 -1.210938 3.625 -1.484375 C 3.476562 -1.765625 3.367188 -2.007812 3.296875 -2.21875 L 3.09375 0 L 1.609375 0 L 1.609375 -15.609375 L 3.5625 -15.609375 L 3.5625 -9.140625 C 3.65625 -9.316406 3.789062 -9.515625 3.96875 -9.734375 C 4.15625 -9.953125 4.394531 -10.160156 4.6875 -10.359375 C 4.988281 -10.566406 5.335938 -10.734375 5.734375 -10.859375 C 6.140625 -10.992188 6.601562 -11.0625 7.125 -11.0625 C 8.476562 -11.0625 9.554688 -10.585938 10.359375 -9.640625 C 11.160156 -8.703125 11.5625 -7.3125 11.5625 -5.46875 C 11.5625 -4.332031 11.390625 -3.335938 11.046875 -2.484375 C 10.703125 -1.628906 10.191406 -0.96875 9.515625 -0.5 C 8.835938 -0.03125 7.988281 0.203125 6.96875 0.203125 Z M 6.625 -1.28125 C 7.507812 -1.28125 8.226562 -1.617188 8.78125 -2.296875 C 9.332031 -2.984375 9.609375 -4.070312 9.609375 -5.5625 C 9.609375 -6.832031 9.347656 -7.816406 8.828125 -8.515625 C 8.316406 -9.210938 7.566406 -9.5625 6.578125 -9.5625 C 5.859375 -9.5625 5.28125 -9.40625 4.84375 -9.09375 C 4.40625 -8.78125 4.082031 -8.320312 3.875 -7.71875 C 3.664062 -7.125 3.5625 -6.40625 3.5625 -5.5625 C 3.5625 -4.039062 3.796875 -2.945312 4.265625 -2.28125 C 4.742188 -1.613281 5.53125 -1.28125 6.625 -1.28125 Z M 6.625 -1.28125 "/></g></g></g><g fill="#2e2e2e" fill-opacity="1"><g transform="translate(227.759241, 263.66531)"><g><path d="M 5.59375 0.203125 C 5.03125 0.203125 4.5 0.125 4 -0.03125 C 3.5 -0.1875 3.054688 -0.421875 2.671875 -0.734375 C 2.285156 -1.046875 1.976562 -1.429688 1.75 -1.890625 C 1.53125 -2.347656 1.421875 -2.878906 1.421875 -3.484375 L 1.421875 -10.859375 L 3.375 -10.859375 L 3.375 -3.6875 C 3.375 -2.976562 3.59375 -2.398438 4.03125 -1.953125 C 4.46875 -1.515625 5.125 -1.296875 6 -1.296875 C 6.800781 -1.296875 7.441406 -1.503906 7.921875 -1.921875 C 8.410156 -2.335938 8.65625 -2.960938 8.65625 -3.796875 L 8.65625 -10.859375 L 10.59375 -10.859375 L 10.59375 0 L 9.046875 0 L 8.84375 -2.078125 C 8.71875 -1.535156 8.492188 -1.09375 8.171875 -0.75 C 7.859375 -0.414062 7.476562 -0.171875 7.03125 -0.015625 C 6.582031 0.140625 6.101562 0.210938 5.59375 0.203125 Z M 5.59375 0.203125 "/></g></g></g><g fill="#2e2e2e" fill-opacity="1"><g transform="translate(239.781693, 263.66531)"><g><path d="M 5.515625 0.203125 C 4.109375 0.203125 2.992188 -0.273438 2.171875 -1.234375 C 1.347656 -2.203125 0.9375 -3.613281 0.9375 -5.46875 C 0.9375 -6.59375 1.101562 -7.578125 1.4375 -8.421875 C 1.769531 -9.265625 2.265625 -9.914062 2.921875 -10.375 C 3.578125 -10.832031 4.394531 -11.0625 5.375 -11.0625 C 5.894531 -11.0625 6.351562 -10.992188 6.75 -10.859375 C 7.15625 -10.734375 7.503906 -10.566406 7.796875 -10.359375 C 8.097656 -10.160156 8.335938 -9.953125 8.515625 -9.734375 C 8.703125 -9.515625 8.84375 -9.316406 8.9375 -9.140625 L 8.9375 -15.609375 L 10.890625 -15.609375 L 10.890625 0 L 9.40625 0 L 9.203125 -2.21875 C 9.128906 -2.007812 9.015625 -1.765625 8.859375 -1.484375 C 8.703125 -1.210938 8.484375 -0.945312 8.203125 -0.6875 C 7.929688 -0.425781 7.578125 -0.210938 7.140625 -0.046875 C 6.703125 0.117188 6.160156 0.203125 5.515625 0.203125 Z M 5.875 -1.28125 C 6.96875 -1.28125 7.75 -1.613281 8.21875 -2.28125 C 8.695312 -2.945312 8.9375 -4.039062 8.9375 -5.5625 C 8.925781 -6.40625 8.816406 -7.125 8.609375 -7.71875 C 8.410156 -8.320312 8.09375 -8.78125 7.65625 -9.09375 C 7.21875 -9.40625 6.632812 -9.5625 5.90625 -9.5625 C 5.007812 -9.5625 4.28125 -9.238281 3.71875 -8.59375 C 3.164062 -7.957031 2.890625 -6.945312 2.890625 -5.5625 C 2.890625 -4.207031 3.140625 -3.15625 3.640625 -2.40625 C 4.148438 -1.65625 4.894531 -1.28125 5.875 -1.28125 Z M 5.875 -1.28125 "/></g></g></g><g fill="#2e2e2e" fill-opacity="1"><g transform="translate(252.276638, 263.66531)"><g><path d="M 6.1875 3.59375 C 4.476562 3.59375 3.148438 3.34375 2.203125 2.84375 C 1.253906 2.351562 0.78125 1.648438 0.78125 0.734375 C 0.78125 0.335938 0.867188 0.00390625 1.046875 -0.265625 C 1.234375 -0.546875 1.453125 -0.773438 1.703125 -0.953125 C 1.953125 -1.140625 2.1875 -1.285156 2.40625 -1.390625 C 2.625 -1.492188 2.765625 -1.570312 2.828125 -1.625 C 2.703125 -1.695312 2.550781 -1.785156 2.375 -1.890625 C 2.195312 -1.992188 2.039062 -2.132812 1.90625 -2.3125 C 1.78125 -2.488281 1.71875 -2.71875 1.71875 -3 C 1.71875 -3.332031 1.875 -3.644531 2.1875 -3.9375 C 2.507812 -4.226562 2.988281 -4.441406 3.625 -4.578125 C 2.988281 -4.898438 2.488281 -5.328125 2.125 -5.859375 C 1.769531 -6.390625 1.59375 -6.96875 1.59375 -7.59375 C 1.59375 -8.289062 1.78125 -8.898438 2.15625 -9.421875 C 2.539062 -9.941406 3.085938 -10.335938 3.796875 -10.609375 C 4.503906 -10.890625 5.347656 -11.03125 6.328125 -11.03125 C 7.023438 -11.03125 7.613281 -10.945312 8.09375 -10.78125 C 8.582031 -10.613281 9.035156 -10.378906 9.453125 -10.078125 C 9.566406 -10.128906 9.742188 -10.203125 9.984375 -10.296875 C 10.222656 -10.398438 10.488281 -10.507812 10.78125 -10.625 C 11.070312 -10.75 11.34375 -10.863281 11.59375 -10.96875 C 11.851562 -11.082031 12.0625 -11.164062 12.21875 -11.21875 L 12.21875 -9.421875 L 10.3125 -9.078125 C 10.414062 -8.847656 10.5 -8.597656 10.5625 -8.328125 C 10.632812 -8.066406 10.671875 -7.820312 10.671875 -7.59375 C 10.671875 -6.957031 10.503906 -6.378906 10.171875 -5.859375 C 9.835938 -5.335938 9.332031 -4.921875 8.65625 -4.609375 C 7.988281 -4.304688 7.148438 -4.15625 6.140625 -4.15625 C 6.054688 -4.15625 5.945312 -4.15625 5.8125 -4.15625 C 5.6875 -4.164062 5.578125 -4.171875 5.484375 -4.171875 C 4.742188 -4.148438 4.234375 -4.066406 3.953125 -3.921875 C 3.671875 -3.785156 3.53125 -3.628906 3.53125 -3.453125 C 3.53125 -3.253906 3.6875 -3.113281 4 -3.03125 C 4.320312 -2.957031 4.863281 -2.890625 5.625 -2.828125 C 5.894531 -2.816406 6.226562 -2.800781 6.625 -2.78125 C 7.03125 -2.757812 7.476562 -2.734375 7.96875 -2.703125 C 9.113281 -2.628906 9.992188 -2.335938 10.609375 -1.828125 C 11.222656 -1.316406 11.53125 -0.628906 11.53125 0.234375 C 11.53125 1.222656 11.085938 2.03125 10.203125 2.65625 C 9.328125 3.28125 7.988281 3.59375 6.1875 3.59375 Z M 6.53125 2.34375 C 7.53125 2.34375 8.296875 2.191406 8.828125 1.890625 C 9.359375 1.585938 9.625 1.132812 9.625 0.53125 C 9.625 0.09375 9.460938 -0.257812 9.140625 -0.53125 C 8.816406 -0.8125 8.320312 -0.972656 7.65625 -1.015625 L 4.609375 -1.21875 C 4.335938 -1.226562 4.050781 -1.15625 3.75 -1 C 3.457031 -0.851562 3.207031 -0.644531 3 -0.375 C 2.800781 -0.113281 2.703125 0.179688 2.703125 0.515625 C 2.703125 1.085938 3.015625 1.535156 3.640625 1.859375 C 4.265625 2.179688 5.226562 2.34375 6.53125 2.34375 Z M 6.1875 -5.40625 C 6.976562 -5.40625 7.613281 -5.585938 8.09375 -5.953125 C 8.570312 -6.316406 8.8125 -6.859375 8.8125 -7.578125 C 8.8125 -8.304688 8.570312 -8.863281 8.09375 -9.25 C 7.613281 -9.632812 6.976562 -9.828125 6.1875 -9.828125 C 5.40625 -9.828125 4.769531 -9.628906 4.28125 -9.234375 C 3.789062 -8.847656 3.546875 -8.296875 3.546875 -7.578125 C 3.546875 -6.890625 3.773438 -6.351562 4.234375 -5.96875 C 4.703125 -5.59375 5.351562 -5.40625 6.1875 -5.40625 Z M 6.1875 -5.40625 "/></g></g></g><g fill="#2e2e2e" fill-opacity="1"><g transform="translate(265.31758, 263.66531)"><g><path d="M 3 -4.984375 C 3 -4.296875 3.109375 -3.671875 3.328125 -3.109375 C 3.554688 -2.554688 3.90625 -2.113281 4.375 -1.78125 C 4.84375 -1.457031 5.425781 -1.296875 6.125 -1.296875 C 6.8125 -1.296875 7.40625 -1.453125 7.90625 -1.765625 C 8.40625 -2.085938 8.726562 -2.554688 8.875 -3.171875 L 10.703125 -3.171875 C 10.578125 -2.429688 10.285156 -1.8125 9.828125 -1.3125 C 9.367188 -0.8125 8.816406 -0.429688 8.171875 -0.171875 C 7.535156 0.078125 6.863281 0.203125 6.15625 0.203125 C 5.144531 0.203125 4.253906 -0.015625 3.484375 -0.453125 C 2.710938 -0.890625 2.109375 -1.519531 1.671875 -2.34375 C 1.242188 -3.175781 1.03125 -4.171875 1.03125 -5.328125 C 1.03125 -6.460938 1.222656 -7.460938 1.609375 -8.328125 C 2.003906 -9.191406 2.570312 -9.863281 3.3125 -10.34375 C 4.0625 -10.820312 4.960938 -11.0625 6.015625 -11.0625 C 7.035156 -11.0625 7.898438 -10.84375 8.609375 -10.40625 C 9.316406 -9.96875 9.851562 -9.347656 10.21875 -8.546875 C 10.582031 -7.742188 10.765625 -6.789062 10.765625 -5.6875 L 10.765625 -4.984375 Z M 3 -6.296875 L 8.90625 -6.296875 C 8.90625 -6.910156 8.800781 -7.46875 8.59375 -7.96875 C 8.382812 -8.46875 8.0625 -8.863281 7.625 -9.15625 C 7.195312 -9.445312 6.65625 -9.59375 6 -9.59375 C 5.320312 -9.59375 4.757812 -9.429688 4.3125 -9.109375 C 3.875 -8.785156 3.546875 -8.367188 3.328125 -7.859375 C 3.109375 -7.347656 3 -6.828125 3 -6.296875 Z M 3 -6.296875 "/></g></g></g><g fill="#2e2e2e" fill-opacity="1"><g transform="translate(277.140528, 263.66531)"><g><path d="M 7.265625 -9.4375 L 4.8125 -9.4375 L 4.8125 -2.6875 C 4.8125 -2.300781 4.851562 -2.019531 4.9375 -1.84375 C 5.019531 -1.664062 5.15625 -1.550781 5.34375 -1.5 C 5.539062 -1.445312 5.804688 -1.421875 6.140625 -1.421875 L 7.328125 -1.421875 L 7.328125 -0.125 C 7.191406 -0.0703125 6.988281 -0.03125 6.71875 0 C 6.457031 0.03125 6.125 0.046875 5.71875 0.046875 C 4.96875 0.046875 4.382812 -0.0507812 3.96875 -0.25 C 3.5625 -0.457031 3.273438 -0.757812 3.109375 -1.15625 C 2.941406 -1.550781 2.859375 -2.039062 2.859375 -2.625 L 2.859375 -9.4375 L 1.109375 -9.4375 L 1.109375 -10.859375 L 2.921875 -10.859375 L 3.390625 -14.015625 L 4.8125 -14.015625 L 4.8125 -10.875 L 7.265625 -10.875 Z M 7.265625 -9.4375 "/></g></g></g></svg>